<svg id="Ebene_1" data-name="Ebene 1" xmlns="http://www.w3.org/2000/svg" viewBox="0 0 198.43 48.96"><defs><style>.cls-1,.cls-3{fill:#212e7d;}.cls-1{fill-rule:evenodd;}.cls-2{fill:#c7006b;}</style></defs><path class="cls-1" d="M912.62,530l4.18-8.59h21.92s.56,0,.68.4c.08.27-.23.76-.23.76l-3.31,6.67a1.35,1.35,0,0,1-.52.62,2,2,0,0,1-.91.17l-21.81,0Zm3.58,5.4H910l-3.38,7h-6L913.4,516h26.09a5.5,5.5,0,0,1,4.73,2.94,5.35,5.35,0,0,1,.12,5.41l-3.93,7.85a6.29,6.29,0,0,1-2.41,2.36,8.45,8.45,0,0,1-3.43.76l-7.1,0,12.36,7.12-11.41,0-12.22-7Zm102.57-12.49-31,0a8.18,8.18,0,0,0-3.81,1.1,7.52,7.52,0,0,0-2.71,2.71l-6.85,14a6.08,6.08,0,0,0,.19,6.34,5.66,5.66,0,0,0,4.61,2.54h21.58a7.45,7.45,0,0,0,4.48-1.26,7.66,7.66,0,0,0,2.87-3.51l7.12-14.7H993.94l-2.66,5.5h15.48l-4.29,8.53-22.23,0s-.76.06-1-.33.16-1,.16-1l6.84-13.8a1,1,0,0,1,.48-.46,1.87,1.87,0,0,1,.93-.09h28.4l2.71-5.61Zm-119,21.2h63.72a1.37,1.37,0,0,0,.81-.16,1.48,1.48,0,0,0,.48-.63l3.37-6.83s.2-.38.07-.6-.67-.31-.67-.31H950a5.84,5.84,0,0,1-4.87-2.43,5.75,5.75,0,0,1-.55-5.92l4-8.06a6.2,6.2,0,0,1,2.25-2.42,7,7,0,0,1,3.2-.78l68,0-2.6,5.39H954.4a2.15,2.15,0,0,0-.82.13.88.88,0,0,0-.41.39l-3.64,7.34a1,1,0,0,0-.08.7.43.43,0,0,0,.48.3l18.67.05a5.28,5.28,0,0,1,4.51,2.74,5.49,5.49,0,0,1,.43,5.19l-3.34,6.91a7.84,7.84,0,0,1-3.39,3.52,14.63,14.63,0,0,1-5.89.85H897.16l2.59-5.43Z" transform="translate(-860 -516)"/><polygon class="cls-2" points="0 23.83 0 23.47 102.85 23.47 102.72 23.83 0 23.83 0 23.83"/><polygon class="cls-2" points="124.42 23.83 124.57 23.47 198.43 23.47 198.43 23.83 124.42 23.83 124.42 23.83"/><path class="cls-1" d="M883.83,558.46h.71c1,0,1.76.07,1.76,1.21,0,1-.93,1.28-1.74,1.28h-.73v-2.49Zm-.69,6.38h.69v-3.29h.57c.66,0,1,0,1.36.93l1,2.36h.76l-1.19-2.7c-.22-.47-.34-.77-.9-.84v0a1.64,1.64,0,0,0,1.55-1.61c0-1.28-.81-1.81-2-1.81h-1.8v7Z" transform="translate(-860 -516)"/><polygon class="cls-3" points="28.68 48.84 32.22 48.84 32.22 48.24 29.37 48.24 29.37 45.55 31.96 45.55 31.96 44.95 29.37 44.95 29.37 42.46 32.1 42.46 32.1 41.86 28.68 41.86 28.68 48.84 28.68 48.84"/><path class="cls-3" d="M898.46,564.11a3.55,3.55,0,0,1-1.48.25,2.71,2.71,0,0,1-2.83-3,2.74,2.74,0,0,1,2.83-3,3.67,3.67,0,0,1,1.79.37l.08-.64a4.92,4.92,0,0,0-1.87-.33,3.37,3.37,0,0,0-3.52,3.61A3.33,3.33,0,0,0,897,565a5.23,5.23,0,0,0,2.17-.43v-3.47h-2.31v.6h1.62v2.45Z" transform="translate(-860 -516)"/><polygon class="cls-3" points="40.9 48.84 44.44 48.84 44.44 48.24 41.59 48.24 41.59 45.55 44.18 45.55 44.18 44.95 41.59 44.95 41.59 42.46 44.32 42.46 44.32 41.86 40.9 41.86 40.9 48.84 40.9 48.84"/><polygon class="cls-3" points="45.84 48.84 49.33 48.84 49.33 48.24 46.53 48.24 46.53 41.86 45.84 41.86 45.84 48.84 45.84 48.84"/><polygon class="cls-3" points="49.89 46.49 52.4 46.49 52.4 45.8 49.89 45.8 49.89 46.49 49.89 46.49"/><path class="cls-3" d="M921.45,557.86h-.69v4.54a1.84,1.84,0,1,1-3.68,0v-4.54h-.69v4.54a2.53,2.53,0,1,0,5.06,0v-4.54Z" transform="translate(-860 -516)"/><polygon class="cls-3" points="63.02 48.84 63.71 48.84 63.71 42.82 63.73 42.82 67.22 48.84 68.16 48.84 68.16 41.86 67.46 41.86 67.46 48 67.44 48 63.9 41.86 63.02 41.86 63.02 48.84 63.02 48.84"/><path class="cls-1" d="M930.42,558.46h1a2.54,2.54,0,0,1,2.83,2.84c0,2.14-1.29,2.94-3.27,2.94h-.57v-5.78Zm-.69,6.38H931c2.31,0,4-1,4-3.5,0-2-1-3.48-3.49-3.48h-1.73v7Z" transform="translate(-860 -516)"/><path class="cls-3" d="M939,564.66a4,4,0,0,0,1.58.3,2,2,0,0,0,2.29-2c0-2-3.2-2-3.2-3.45,0-.9.79-1.2,1.51-1.2a2.84,2.84,0,0,1,1.27.26l.11-.63a4.16,4.16,0,0,0-1.37-.23,2,2,0,0,0-2.21,1.82c0,1.83,3.2,2,3.2,3.37a1.39,1.39,0,0,1-1.57,1.43A2.75,2.75,0,0,1,939,564l-.07.71Z" transform="translate(-860 -516)"/><polygon class="cls-3" points="85.53 48.84 86.22 48.84 86.22 42.46 88.28 42.46 88.28 41.86 83.47 41.86 83.47 42.46 85.53 42.46 85.53 48.84 85.53 48.84"/><polygon class="cls-3" points="89.24 48.84 92.78 48.84 92.78 48.24 89.93 48.24 89.93 45.55 92.52 45.55 92.52 44.95 89.93 44.95 89.93 42.46 92.66 42.46 92.66 41.86 89.24 41.86 89.24 48.84 89.24 48.84"/><path class="cls-3" d="M959.25,557.86h-.69v4.54a1.84,1.84,0,1,1-3.68,0v-4.54h-.69v4.54a2.53,2.53,0,1,0,5.06,0v-4.54Z" transform="translate(-860 -516)"/><polygon class="cls-3" points="100.91 48.84 104.45 48.84 104.45 48.24 101.6 48.24 101.6 45.55 104.19 45.55 104.19 44.95 101.6 44.95 101.6 42.46 104.33 42.46 104.33 41.86 100.91 41.86 100.91 48.84 100.91 48.84"/><path class="cls-1" d="M966.62,558.46h.71c.95,0,1.76.07,1.76,1.21,0,1-.93,1.28-1.74,1.28h-.73v-2.49Zm-.69,6.38h.69v-3.29h.57c.66,0,1,0,1.36.93l1,2.36h.76l-1.19-2.7c-.22-.47-.34-.77-.9-.84v0a1.64,1.64,0,0,0,1.55-1.61c0-1.28-.81-1.81-2-1.81h-1.8v7Z" transform="translate(-860 -516)"/><path class="cls-3" d="M976.25,564.11a3.55,3.55,0,0,1-1.48.25,2.71,2.71,0,0,1-2.83-3,2.74,2.74,0,0,1,2.83-3,3.67,3.67,0,0,1,1.79.37l.08-.64a4.92,4.92,0,0,0-1.87-.33,3.37,3.37,0,0,0-3.52,3.61,3.33,3.33,0,0,0,3.52,3.61,5.23,5.23,0,0,0,2.17-.43v-3.47h-2.31v.6h1.62v2.45Z" transform="translate(-860 -516)"/><polygon class="cls-3" points="118.69 48.84 122.23 48.84 122.23 48.24 119.38 48.24 119.38 45.55 121.97 45.55 121.97 44.95 119.38 44.95 119.38 42.46 122.11 42.46 122.11 41.86 118.69 41.86 118.69 48.84 118.69 48.84"/><path class="cls-1" d="M984.4,558.46h.71c.95,0,1.76.07,1.76,1.21,0,1-.93,1.28-1.74,1.28h-.73v-2.49Zm-.69,6.38h.69v-3.29H985c.66,0,1,0,1.36.93l1,2.36h.76l-1.19-2.7c-.22-.47-.34-.77-.9-.84v0a1.64,1.64,0,0,0,1.55-1.61c0-1.28-.81-1.81-2-1.81h-1.8v7Z" transform="translate(-860 -516)"/><path class="cls-1" d="M992.21,557.26H993v-.84h-.75v.84Zm-1.71,0h.75v-.84h-.75v.84Zm-2,7.58h.67l.75-1.87h3.52l.75,1.87h.72l-2.77-7h-.78l-2.86,7Zm4.71-2.47h-3l1.52-3.85,1.51,3.85Z" transform="translate(-860 -516)"/><polygon class="cls-3" points="137.22 48.84 137.91 48.84 137.91 42.46 139.97 42.46 139.97 41.86 135.16 41.86 135.16 42.46 137.22 42.46 137.22 48.84 137.22 48.84"/><polygon class="cls-3" points="140.92 48.84 144.46 48.84 144.46 48.24 141.61 48.24 141.61 45.55 144.2 45.55 144.2 44.95 141.61 44.95 141.61 42.46 144.34 42.46 144.34 41.86 140.92 41.86 140.92 48.84 140.92 48.84"/><path class="cls-3" d="M1013.48,564.11a3.55,3.55,0,0,1-1.48.25,2.71,2.71,0,0,1-2.83-3,2.74,2.74,0,0,1,2.83-3,3.67,3.67,0,0,1,1.79.37l.08-.64a4.92,4.92,0,0,0-1.87-.33,3.37,3.37,0,0,0-3.52,3.61A3.33,3.33,0,0,0,1012,565a5.23,5.23,0,0,0,2.17-.43v-3.47h-2.31v.6h1.62v2.45Z" transform="translate(-860 -516)"/><polygon class="cls-3" points="155.91 48.84 156.6 48.84 156.6 42.55 156.63 42.55 159.25 48.84 159.84 48.84 162.38 42.55 162.4 42.55 162.4 48.84 163.09 48.84 163.09 41.86 162.09 41.86 159.53 48 156.99 41.86 155.91 41.86 155.91 48.84 155.91 48.84"/><path class="cls-1" d="M1024.74,564.84h1.39c1.45,0,2.69-.47,2.69-2a1.64,1.64,0,0,0-1.48-1.66v0a1.44,1.44,0,0,0,1.27-1.59c0-1.34-1.07-1.72-2.21-1.72h-1.66v7Zm.69-3.33h.61c1,0,2.09.13,2.09,1.37s-1.05,1.36-2,1.36h-.72v-2.73Zm0-3h1c.59,0,1.52.14,1.52,1.15s-1,1.3-1.7,1.3h-.77v-2.45Z" transform="translate(-860 -516)"/><polygon class="cls-3" points="170.38 48.84 171.07 48.84 171.07 45.55 174.6 45.55 174.6 48.84 175.29 48.84 175.29 41.86 174.6 41.86 174.6 44.95 171.07 44.95 171.07 41.86 170.38 41.86 170.38 48.84 170.38 48.84"/></svg>